<svg width="44" height="44" viewBox="0 0 44 44" fill="none" xmlns="http://www.w3.org/2000/svg">
<rect width="44" height="44" rx="22" fill="#F6F6F6"/>
<path d="M26.8673 11.0115C26.8186 10.957 25.0641 11.033 23.5373 12.6901C22.0104 14.3458 22.2453 16.2451 22.2797 16.2938C22.3141 16.3425 24.4568 16.4184 25.8246 14.4919C27.1925 12.5655 26.916 11.0673 26.8673 11.0115ZM31.614 27.8165C31.5452 27.679 28.2839 26.0491 28.5875 22.9152C28.8912 19.78 30.9866 18.9206 31.0196 18.8275C31.0525 18.7344 30.1645 17.696 29.2235 17.1703C28.5325 16.7997 27.7679 16.5874 26.9848 16.5487C26.8301 16.5444 26.293 16.4126 25.1887 16.7149C24.4611 16.9139 22.8211 17.5585 22.3699 17.5843C21.9173 17.61 20.571 16.8366 19.1229 16.6318C18.1962 16.4527 17.2137 16.8194 16.5104 17.1016C15.8086 17.3823 14.4737 18.1815 13.5399 20.3056C12.606 22.4283 13.0944 25.7913 13.4439 26.8369C13.7934 27.881 14.3391 29.5926 15.2672 30.8415C16.0922 32.2509 17.1865 33.2292 17.6434 33.5615C18.1003 33.8938 19.3893 34.1143 20.2831 33.6574C21.0021 33.2163 22.2998 32.9628 22.8125 32.9814C23.3239 33 24.3322 33.202 25.3649 33.7534C26.1827 34.0356 26.9561 33.9181 27.731 33.603C28.5059 33.2865 29.6274 32.0862 30.9365 29.6527C31.4335 28.5212 31.6598 27.9096 31.614 27.8165Z" fill="black"/>
</svg>
