<svg width="210" height="89" viewBox="0 0 210 89" fill="none" xmlns="http://www.w3.org/2000/svg">
<rect x="83" width="44" height="44" rx="22" fill="#F6F6F6"/>
<path d="M3.50284 86C6.16193 86 7.70028 84.3509 7.70028 81.6236C7.70028 78.9091 6.16193 77.2727 3.59233 77.2727H0.677557V86H3.50284ZM1.99432 84.8494V78.4233H3.51136C5.42045 78.4233 6.40483 79.5653 6.40483 81.6236C6.40483 83.6903 5.42045 84.8494 3.4304 84.8494H1.99432ZM11.9925 86.1321C13.8377 86.1321 15.0437 84.7812 15.0437 82.7571C15.0437 80.7202 13.8377 79.3693 11.9925 79.3693C10.1474 79.3693 8.94141 80.7202 8.94141 82.7571C8.94141 84.7812 10.1474 86.1321 11.9925 86.1321ZM11.9968 85.0625C10.7908 85.0625 10.2283 84.0099 10.2283 82.7528C10.2283 81.5 10.7908 80.4347 11.9968 80.4347C13.1942 80.4347 13.7567 81.5 13.7567 82.7528C13.7567 84.0099 13.1942 85.0625 11.9968 85.0625ZM17.7401 82.1136C17.7401 81.0696 18.3793 80.473 19.2656 80.473C20.1307 80.473 20.6548 81.0398 20.6548 81.9901V86H21.929V81.8366C21.929 80.2173 21.0384 79.3693 19.7003 79.3693C18.7159 79.3693 18.0724 79.8253 17.7699 80.5199H17.6889V79.4545H16.4659V86H17.7401V82.1136ZM24.733 77.2727H23.642V78.1037C23.642 78.7642 23.3523 79.3054 23.0199 79.7955L23.6506 80.2472C24.3068 79.7188 24.733 78.8153 24.733 78.0909V77.2727ZM29.2713 79.4545H27.929V77.8864H26.6548V79.4545H25.696V80.4773H26.6548V84.3423C26.6506 85.5312 27.5582 86.1065 28.5639 86.0852C28.9688 86.081 29.2415 86.0043 29.3906 85.9489L29.1605 84.8963C29.0753 84.9134 28.9176 84.9517 28.7131 84.9517C28.2997 84.9517 27.929 84.8153 27.929 84.0781V80.4773H29.2713V79.4545ZM35.1307 82.1136C35.1307 81.0696 35.7912 80.473 36.6989 80.473C37.5767 80.473 38.1009 81.0312 38.1009 81.9901V86H39.375V81.8366C39.375 80.2045 38.4801 79.3693 37.1335 79.3693C36.1151 79.3693 35.5014 79.8125 35.1946 80.5199H35.1136V77.2727H33.8565V86H35.1307V82.1136ZM42.9801 86.1449C44.0625 86.1449 44.6719 85.5952 44.9148 85.1051H44.9659V86H46.2102V81.6534C46.2102 79.7486 44.7102 79.3693 43.6705 79.3693C42.4858 79.3693 41.3949 79.8466 40.9688 81.0398L42.1662 81.3125C42.3537 80.848 42.831 80.4006 43.6875 80.4006C44.5099 80.4006 44.9318 80.831 44.9318 81.5724V81.6023C44.9318 82.0668 44.4545 82.0582 43.2784 82.1946C42.0384 82.3395 40.7685 82.6634 40.7685 84.1506C40.7685 85.4375 41.7358 86.1449 42.9801 86.1449ZM43.2571 85.1222C42.5369 85.1222 42.017 84.7983 42.017 84.1676C42.017 83.4858 42.6222 83.2429 43.3594 83.1449C43.7727 83.0895 44.7528 82.9787 44.9361 82.7955V83.6392C44.9361 84.4148 44.3182 85.1222 43.2571 85.1222ZM53.2724 79.4545H51.9045L50.2511 84.4915H50.1829L48.5252 79.4545H47.1573L49.5352 86H50.8988L53.2724 79.4545ZM57.0565 86.1321C58.484 86.1321 59.494 85.429 59.7837 84.3636L58.5778 84.1463C58.3477 84.7642 57.7937 85.0795 57.0692 85.0795C55.9783 85.0795 55.2454 84.3722 55.2113 83.1108H59.8647V82.6591C59.8647 80.294 58.4499 79.3693 56.967 79.3693C55.1431 79.3693 53.9414 80.7585 53.9414 82.7699C53.9414 84.8026 55.1261 86.1321 57.0565 86.1321ZM55.2156 82.1562C55.2667 81.2273 55.94 80.4219 56.9755 80.4219C57.9641 80.4219 58.6119 81.1548 58.6161 82.1562H55.2156ZM66.359 86.1449C67.4414 86.1449 68.0508 85.5952 68.2937 85.1051H68.3448V86H69.5891V81.6534C69.5891 79.7486 68.0891 79.3693 67.0494 79.3693C65.8647 79.3693 64.7738 79.8466 64.3477 81.0398L65.5451 81.3125C65.7326 80.848 66.2099 80.4006 67.0664 80.4006C67.8888 80.4006 68.3107 80.831 68.3107 81.5724V81.6023C68.3107 82.0668 67.8335 82.0582 66.6573 82.1946C65.4173 82.3395 64.1474 82.6634 64.1474 84.1506C64.1474 85.4375 65.1147 86.1449 66.359 86.1449ZM66.636 85.1222C65.9158 85.1222 65.396 84.7983 65.396 84.1676C65.396 83.4858 66.0011 83.2429 66.7383 83.1449C67.1516 83.0895 68.1317 82.9787 68.315 82.7955V83.6392C68.315 84.4148 67.6971 85.1222 66.636 85.1222ZM72.5604 82.1136C72.5604 81.0696 73.1996 80.473 74.0859 80.473C74.951 80.473 75.4751 81.0398 75.4751 81.9901V86H76.7493V81.8366C76.7493 80.2173 75.8587 79.3693 74.5206 79.3693C73.5362 79.3693 72.8928 79.8253 72.5902 80.5199H72.5092V79.4545H71.2862V86H72.5604V82.1136ZM83.5387 86.1449C84.6211 86.1449 85.2305 85.5952 85.4734 85.1051H85.5245V86H86.7688V81.6534C86.7688 79.7486 85.2688 79.3693 84.229 79.3693C83.0444 79.3693 81.9535 79.8466 81.5273 81.0398L82.7248 81.3125C82.9123 80.848 83.3896 80.4006 84.2461 80.4006C85.0685 80.4006 85.4904 80.831 85.4904 81.5724V81.6023C85.4904 82.0668 85.0131 82.0582 83.837 82.1946C82.5969 82.3395 81.3271 82.6634 81.3271 84.1506C81.3271 85.4375 82.2944 86.1449 83.5387 86.1449ZM83.8157 85.1222C83.0955 85.1222 82.5756 84.7983 82.5756 84.1676C82.5756 83.4858 83.1808 83.2429 83.918 83.1449C84.3313 83.0895 85.3114 82.9787 85.4947 82.7955V83.6392C85.4947 84.4148 84.8768 85.1222 83.8157 85.1222ZM91.223 86.1321C92.7699 86.1321 93.7713 85.2031 93.9119 83.929H92.6719C92.5099 84.6364 91.9602 85.054 91.2315 85.054C90.1534 85.054 89.4588 84.1548 89.4588 82.7273C89.4588 81.3253 90.1662 80.4432 91.2315 80.4432C92.0412 80.4432 92.5355 80.9545 92.6719 81.5682H93.9119C93.7756 80.2472 92.6974 79.3693 91.2102 79.3693C89.3651 79.3693 88.1719 80.7585 88.1719 82.7571C88.1719 84.7301 89.3224 86.1321 91.223 86.1321ZM98.0316 86.1321C99.5785 86.1321 100.58 85.2031 100.721 83.929H99.4805C99.3185 84.6364 98.7688 85.054 98.0401 85.054C96.962 85.054 96.2674 84.1548 96.2674 82.7273C96.2674 81.3253 96.9748 80.4432 98.0401 80.4432C98.8498 80.4432 99.3441 80.9545 99.4805 81.5682H100.721C100.584 80.2472 99.506 79.3693 98.0188 79.3693C96.1737 79.3693 94.9805 80.7585 94.9805 82.7571C94.9805 84.7301 96.131 86.1321 98.0316 86.1321ZM104.84 86.1321C106.685 86.1321 107.891 84.7812 107.891 82.7571C107.891 80.7202 106.685 79.3693 104.84 79.3693C102.995 79.3693 101.789 80.7202 101.789 82.7571C101.789 84.7812 102.995 86.1321 104.84 86.1321ZM104.844 85.0625C103.638 85.0625 103.076 84.0099 103.076 82.7528C103.076 81.5 103.638 80.4347 104.844 80.4347C106.042 80.4347 106.604 81.5 106.604 82.7528C106.604 84.0099 106.042 85.0625 104.844 85.0625ZM113.46 83.2855C113.464 84.3977 112.637 84.9261 111.922 84.9261C111.133 84.9261 110.588 84.3551 110.588 83.4645V79.4545H109.314V83.6179C109.314 85.2415 110.204 86.0852 111.461 86.0852C112.446 86.0852 113.115 85.5653 113.417 84.8665H113.485V86H114.738V79.4545H113.46V83.2855ZM117.724 82.1136C117.724 81.0696 118.364 80.473 119.25 80.473C120.115 80.473 120.639 81.0398 120.639 81.9901V86H121.913V81.8366C121.913 80.2173 121.023 79.3693 119.685 79.3693C118.7 79.3693 118.057 79.8253 117.754 80.5199H117.673V79.4545H116.45V86H117.724V82.1136ZM126.678 79.4545H125.335V77.8864H124.061V79.4545H123.102V80.4773H124.061V84.3423C124.057 85.5312 124.964 86.1065 125.97 86.0852C126.375 86.081 126.648 86.0043 126.797 85.9489L126.567 84.8963C126.482 84.9134 126.324 84.9517 126.119 84.9517C125.706 84.9517 125.335 84.8153 125.335 84.0781V80.4773H126.678V79.4545ZM129.48 83.4901H130.699V83.4091C130.716 82.429 130.998 81.9901 131.722 81.5426C132.485 81.0824 132.953 80.4347 132.953 79.4759C132.953 78.0909 131.905 77.1534 130.341 77.1534C128.905 77.1534 127.755 77.9929 127.699 79.527H128.995C129.046 78.6236 129.689 78.2273 130.341 78.2273C131.066 78.2273 131.654 78.7088 131.654 79.4631C131.654 80.098 131.257 80.5455 130.75 80.8608C129.958 81.3466 129.489 81.8281 129.48 83.4091V83.4901ZM130.124 86.081C130.588 86.081 130.976 85.7017 130.976 85.2287C130.976 84.7642 130.588 84.3807 130.124 84.3807C129.655 84.3807 129.272 84.7642 129.272 85.2287C129.272 85.7017 129.655 86.081 130.124 86.081Z" fill="black"/>
<path d="M142.43 79.5653H143.7C143.661 78.1676 142.425 77.1534 140.653 77.1534C138.901 77.1534 137.559 78.1548 137.559 79.6591C137.559 80.8736 138.428 81.5852 139.83 81.9645L140.862 82.2457C141.795 82.4929 142.515 82.7997 142.515 83.5753C142.515 84.4276 141.701 84.9901 140.58 84.9901C139.566 84.9901 138.722 84.5384 138.646 83.5881H137.325C137.41 85.169 138.633 86.1449 140.589 86.1449C142.638 86.1449 143.819 85.0668 143.819 83.5881C143.819 82.0156 142.417 81.4062 141.309 81.1335L140.457 80.9119C139.775 80.7372 138.867 80.4176 138.871 79.5824C138.871 78.8409 139.549 78.2912 140.623 78.2912C141.624 78.2912 142.336 78.7599 142.43 79.5653ZM145.29 86H146.564V79.4545H145.29V86ZM145.934 78.4446C146.373 78.4446 146.739 78.1037 146.739 77.6861C146.739 77.2685 146.373 76.9233 145.934 76.9233C145.49 76.9233 145.128 77.2685 145.128 77.6861C145.128 78.1037 145.49 78.4446 145.934 78.4446ZM151.023 88.5909C152.689 88.5909 153.976 87.8281 153.976 86.1449V79.4545H152.727V80.5156H152.634C152.408 80.1108 151.956 79.3693 150.737 79.3693C149.156 79.3693 147.993 80.6179 147.993 82.7017C147.993 84.7898 149.182 85.902 150.729 85.902C151.93 85.902 152.395 85.2244 152.625 84.8068H152.706V86.0938C152.706 87.1207 152.003 87.5639 151.036 87.5639C149.974 87.5639 149.561 87.0312 149.335 86.6562L148.24 87.108C148.585 87.9091 149.459 88.5909 151.023 88.5909ZM151.01 84.8452C149.872 84.8452 149.28 83.9716 149.28 82.6847C149.28 81.4276 149.859 80.4517 151.01 80.4517C152.122 80.4517 152.719 81.3594 152.719 82.6847C152.719 84.0355 152.109 84.8452 151.01 84.8452ZM156.959 82.1136C156.959 81.0696 157.598 80.473 158.484 80.473C159.349 80.473 159.874 81.0398 159.874 81.9901V86H161.148V81.8366C161.148 80.2173 160.257 79.3693 158.919 79.3693C157.935 79.3693 157.291 79.8253 156.989 80.5199H156.908V79.4545H155.685V86H156.959V82.1136ZM171.747 77.2727V82.9062C171.747 84.0909 170.929 84.9432 169.599 84.9432C168.274 84.9432 167.451 84.0909 167.451 82.9062V77.2727H166.135V83.0128C166.135 84.8452 167.507 86.1449 169.599 86.1449C171.691 86.1449 173.068 84.8452 173.068 83.0128V77.2727H171.747ZM174.88 88.4545H176.154V84.9815H176.231C176.461 85.3991 176.93 86.1278 178.123 86.1278C179.708 86.1278 180.859 84.858 180.859 82.7401C180.859 80.6179 179.691 79.3693 178.11 79.3693C176.896 79.3693 176.457 80.1108 176.231 80.5156H176.124V79.4545H174.88V88.4545ZM176.129 82.7273C176.129 81.3594 176.725 80.4517 177.837 80.4517C178.992 80.4517 179.572 81.4276 179.572 82.7273C179.572 84.0398 178.975 85.0412 177.837 85.0412C176.742 85.0412 176.129 84.1037 176.129 82.7273ZM186.736 82.1136C186.736 81.0696 187.397 80.473 188.304 80.473C189.182 80.473 189.706 81.0312 189.706 81.9901V86H190.98V81.8366C190.98 80.2045 190.086 79.3693 188.739 79.3693C187.721 79.3693 187.107 79.8125 186.8 80.5199H186.719V77.2727H185.462V86H186.736V82.1136ZM195.502 86.1321C196.929 86.1321 197.939 85.429 198.229 84.3636L197.023 84.1463C196.793 84.7642 196.239 85.0795 195.515 85.0795C194.424 85.0795 193.691 84.3722 193.657 83.1108H198.31V82.6591C198.31 80.294 196.895 79.3693 195.412 79.3693C193.588 79.3693 192.387 80.7585 192.387 82.7699C192.387 84.8026 193.571 86.1321 195.502 86.1321ZM193.661 82.1562C193.712 81.2273 194.385 80.4219 195.421 80.4219C196.409 80.4219 197.057 81.1548 197.061 82.1562H193.661ZM199.724 86H200.998V82.0028C200.998 81.1463 201.658 80.5284 202.562 80.5284C202.826 80.5284 203.124 80.5753 203.227 80.6051V79.3864C203.099 79.3693 202.847 79.3565 202.685 79.3565C201.918 79.3565 201.262 79.7912 201.023 80.4943H200.955V79.4545H199.724V86ZM206.916 86.1321C208.343 86.1321 209.353 85.429 209.643 84.3636L208.437 84.1463C208.207 84.7642 207.653 85.0795 206.929 85.0795C205.838 85.0795 205.105 84.3722 205.071 83.1108H209.724V82.6591C209.724 80.294 208.309 79.3693 206.826 79.3693C205.002 79.3693 203.801 80.7585 203.801 82.7699C203.801 84.8026 204.985 86.1321 206.916 86.1321ZM205.075 82.1562C205.126 81.2273 205.799 80.4219 206.835 80.4219C207.824 80.4219 208.471 81.1548 208.475 82.1562H205.075Z" fill="#FF7248"/>
</svg>
