<svg width="44" height="44" viewBox="0 0 44 44" fill="none" xmlns="http://www.w3.org/2000/svg">
<rect width="44" height="44" rx="22" fill="white"/>
<g clip-path="url(#clip0_1_122)">
<path d="M20.6745 33.6045C15.3445 32.6507 11.305 28.0501 11.305 22.4957C11.305 16.3241 16.3544 11.2746 22.526 11.2746C28.6976 11.2746 33.7471 16.3241 33.7471 22.4957C33.7471 28.0501 29.7075 32.6507 24.3775 33.6045L23.7603 33.0996H21.2917L20.6745 33.6045Z" fill="url(#paint0_linear_1_122)"/>
<path d="M26.9022 25.6376L27.4072 22.4957H24.4336V20.3076C24.4336 19.4099 24.7702 18.7366 26.1167 18.7366H27.5755V15.8753C26.79 15.7631 25.8923 15.6508 25.1069 15.6508C22.526 15.6508 20.7306 17.2218 20.7306 20.0271V22.4957H17.9254V25.6376H20.7306V33.5484C21.3478 33.6606 21.965 33.7167 22.5821 33.7167C23.1993 33.7167 23.8164 33.6606 24.4336 33.5484V25.6376H26.9022Z" fill="white"/>
</g>
<defs>
<linearGradient id="paint0_linear_1_122" x1="22.5267" y1="32.9358" x2="22.5267" y2="11.2703" gradientUnits="userSpaceOnUse">
<stop stop-color="#0062E0"/>
<stop offset="1" stop-color="#19AFFF"/>
</linearGradient>
<clipPath id="clip0_1_122">
<rect width="22.9167" height="22.9167" fill="white" transform="translate(11 11)"/>
</clipPath>
</defs>
</svg>
