<svg width="23" height="23" viewBox="0 0 23 23" fill="none" xmlns="http://www.w3.org/2000/svg">
<g clip-path="url(#clip0_2_4)">
<path d="M9.67454 22.6045C4.34454 21.6507 0.304962 17.0501 0.304962 11.4957C0.304962 5.32412 5.35443 0.274643 11.526 0.274643C17.6976 0.274643 22.7471 5.32412 22.7471 11.4957C22.7471 17.0501 18.7075 21.6507 13.3775 22.6045L12.7603 22.0996H10.2917L9.67454 22.6045Z" fill="url(#paint0_linear_2_4)"/>
<path d="M15.9022 14.6376L16.4072 11.4957H13.4336V9.30758C13.4336 8.4099 13.7702 7.73664 15.1167 7.73664H16.5755V4.87527C15.79 4.76305 14.8923 4.65085 14.1069 4.65085C11.526 4.65085 9.73064 6.22179 9.73064 9.02706V11.4957H6.92538V14.6376H9.73064V22.5484C10.3478 22.6606 10.965 22.7167 11.5821 22.7167C12.1993 22.7167 12.8164 22.6606 13.4336 22.5484V14.6376H15.9022Z" fill="white"/>
</g>
<defs>
<linearGradient id="paint0_linear_2_4" x1="11.5267" y1="21.9358" x2="11.5267" y2="0.2703" gradientUnits="userSpaceOnUse">
<stop stop-color="#0062E0"/>
<stop offset="1" stop-color="#19AFFF"/>
</linearGradient>
<clipPath id="clip0_2_4">
<rect width="22.9167" height="22.9167" fill="white"/>
</clipPath>
</defs>
</svg>
