<svg width="44" height="44" viewBox="0 0 44 44" fill="none" xmlns="http://www.w3.org/2000/svg">
<rect width="44" height="44" rx="22" fill="white"/>
<path d="M33.6936 20.2141H32.7707V20.1666H22.4582V24.7499H28.9339C27.9891 27.4179 25.4506 29.3332 22.4582 29.3332C18.6616 29.3332 15.5833 26.2549 15.5833 22.4582C15.5833 18.6616 18.6616 15.5833 22.4582 15.5833C24.2108 15.5833 25.8052 16.2444 27.0192 17.3244L30.2602 14.0834C28.2137 12.1762 25.4763 11 22.4582 11C16.1304 11 11 16.1304 11 22.4582C11 28.7861 16.1304 33.9165 22.4582 33.9165C28.7861 33.9165 33.9165 28.7861 33.9165 22.4582C33.9165 21.69 33.8374 20.94 33.6936 20.2141Z" fill="#FFC107"/>
<path d="M12.3209 17.125L16.0855 19.8859C17.1041 17.3639 19.5711 15.5833 22.458 15.5833C24.2105 15.5833 25.8049 16.2444 27.0189 17.3244L30.2599 14.0834C28.2134 12.1762 25.4761 11 22.458 11C18.0569 11 14.2401 13.4847 12.3209 17.125Z" fill="#FF3D00"/>
<path d="M22.458 33.9168C25.4176 33.9168 28.1069 32.7841 30.1401 30.9422L26.5938 27.9413C25.4048 28.8456 23.9518 29.3346 22.458 29.3335C19.4777 29.3335 16.9471 27.4331 15.9938 24.7811L12.2573 27.66C14.1536 31.3707 18.0047 33.9168 22.458 33.9168Z" fill="#4CAF50"/>
<path d="M33.6931 20.2144H32.7701V20.1668H22.4577V24.7501H28.9333C28.4814 26.0199 27.6674 27.1295 26.5918 27.9418L26.5935 27.9407L30.1399 30.9416C29.8889 31.1696 33.9159 28.1876 33.9159 22.4585C33.9159 21.6902 33.8369 20.9402 33.6931 20.2144Z" fill="#1976D2"/>
</svg>
