<svg width="14" height="18" viewBox="0 0 14 18" fill="none" xmlns="http://www.w3.org/2000/svg">
<g opacity="0.4">
<path fill-rule="evenodd" clip-rule="evenodd" d="M6.99999 0.872986C4.95799 0.872986 3.28799 2.52599 3.25399 4.55999C3.25099 4.58099 3.24999 4.60199 3.24999 4.62299V5.29399C3.2076 5.29659 3.16245 5.29822 3.11705 5.29987H3.11705C3.04035 5.30264 2.96295 5.30545 2.89699 5.31299C2.30999 5.37899 1.79299 5.52299 1.41199 5.90399C1.02999 6.28499 0.885991 6.80199 0.818991 7.38999C0.755769 7.95324 0.755861 8.62936 0.755981 9.508L0.755991 9.62499V12.657C0.751991 12.688 0.749991 12.719 0.749991 12.75L0.749988 12.8291C0.749933 13.7262 0.749891 14.4137 0.814991 14.985C0.880991 15.573 1.02499 16.089 1.40699 16.47C1.78799 16.852 2.30499 16.995 2.89199 17.061C3.46308 17.1251 4.14926 17.125 5.04489 17.125L5.12499 17.125H5.13099H8.87499C8.88087 17.125 8.88675 17.1247 8.89275 17.1245C8.89899 17.1242 8.90536 17.124 8.91199 17.124H8.95297C9.84705 17.124 10.5377 17.124 11.108 17.06C11.695 16.994 12.211 16.851 12.593 16.469C12.975 16.088 13.119 15.572 13.185 14.984C13.25 14.4056 13.25 13.7069 13.25 12.7941V12.7941V12.753V12.749V9.62799V9.62699V9.62499L13.25 9.54593V9.54585C13.25 8.64874 13.2501 7.9613 13.185 7.38999C13.119 6.80199 12.975 6.28499 12.593 5.90399C12.211 5.52299 11.695 5.37899 11.108 5.31299C11.043 5.30569 10.9672 5.30246 10.892 5.29925L10.8919 5.29925C10.8434 5.29718 10.7951 5.29512 10.75 5.29199V4.62299C10.75 4.59999 10.749 4.57599 10.746 4.55299C10.708 2.52199 9.03899 0.872986 6.99999 0.872986ZM6.99999 2.12299C8.38699 2.12299 9.49999 3.23699 9.49999 4.62299V5.25299C9.40621 5.25299 9.31738 5.25228 9.22606 5.25155H9.22602C9.12942 5.25078 9.03002 5.24999 8.91899 5.24999L8.91634 5.24981C8.90233 5.24887 8.8891 5.24799 8.87499 5.24799H5.13099C5.11985 5.24799 5.10871 5.24885 5.09678 5.24977L5.09399 5.24999C4.98032 5.24999 4.87855 5.25078 4.7797 5.25155C4.68638 5.25228 4.59566 5.25299 4.49999 5.25299V4.62299C4.49999 3.23699 5.61299 2.12299 6.99999 2.12299ZM8.83099 6.49799H5.16199L5.16099 6.49899C5.15599 6.49899 5.15099 6.49924 5.14599 6.49949C5.14099 6.49974 5.13599 6.49999 5.13099 6.49999C4.19599 6.49999 3.50299 6.50399 3.03699 6.55599C2.57099 6.60799 2.38399 6.69999 2.29499 6.78799C2.20699 6.87599 2.11499 7.06399 2.06199 7.52999C2.00999 7.99599 2.00599 8.68899 2.00599 9.62499V12.75C2.00599 12.779 2.00499 12.808 2.00099 12.838C2.00099 13.723 2.00499 14.395 2.05599 14.844C2.10899 15.311 2.20099 15.498 2.28899 15.587C2.37799 15.675 2.56499 15.766 3.03099 15.819C3.49699 15.871 4.18999 15.875 5.12499 15.875H5.13099H8.84299C8.84849 15.8745 8.85374 15.8742 8.85899 15.874C8.86424 15.8737 8.86949 15.8735 8.87499 15.873C9.80899 15.873 10.502 15.871 10.968 15.819C11.434 15.766 11.622 15.674 11.711 15.585C11.799 15.497 11.891 15.309 11.944 14.843C11.996 14.378 12 13.686 12 12.753V9.62799V9.62599V9.62499C12 8.68899 11.996 7.99599 11.944 7.52999C11.891 7.06399 11.799 6.87599 11.711 6.78799C11.622 6.69899 11.434 6.60799 10.968 6.55599C10.502 6.50399 9.80899 6.49999 8.87499 6.49999C8.86088 6.49999 8.84765 6.4991 8.83364 6.49816L8.83099 6.49799Z" fill="#8A8D90"/>
<path fill-rule="evenodd" clip-rule="evenodd" d="M7.002 8.99799C6.67 8.99799 6.352 9.12999 6.117 9.36399C5.882 9.59899 5.75 9.91799 5.75 10.25C5.75 10.47 5.808 10.686 5.918 10.876C6.029 11.066 6.187 11.224 6.377 11.334V12.75C6.376 12.833 6.391 12.915 6.422 12.992C6.453 13.069 6.499 13.139 6.557 13.198C6.615 13.257 6.685 13.304 6.761 13.336C6.838 13.368 6.92 13.384 7.002 13.384C7.085 13.384 7.167 13.368 7.244 13.336C7.32 13.304 7.389 13.257 7.447 13.198C7.506 13.139 7.551 13.069 7.582 12.992C7.613 12.915 7.629 12.833 7.627 12.75V11.333C7.818 11.223 7.976 11.065 8.086 10.875C8.196 10.685 8.254 10.47 8.255 10.25C8.255 9.91799 8.123 9.59899 7.888 9.36399C7.653 9.12999 7.335 8.99799 7.002 8.99799Z" fill="#8A8D90"/>
</g>
</svg>
